 <svg
    width="20"
    height="20"
    viewBox="0 0 20 20"
    fill="none"
    xmlns="http://www.w3.org/2000/svg"
>
    <rect width="20" height="20" fill="white" />
    <path
    d="M17.4711 2.00146C17.211 2.01262 16.9723 2.08642 16.7626 2.16796C16.5688 2.24323 15.8732 2.5317 14.7654 2.99009C13.6577 3.44848 12.1898 4.05625 10.6253 4.70546C7.49608 6.00388 3.97968 7.46444 2.17789 8.21251C2.11601 8.23795 1.86472 8.31384 1.58718 8.52298C1.309 8.7326 1 9.18753 1 9.68506C1 10.0864 1.20308 10.4952 1.4483 10.7292C1.69352 10.9632 1.94205 11.0726 2.14976 11.1541V11.1524C2.85187 11.4284 4.94861 12.2561 5.44784 12.4532C5.62492 12.9768 6.38511 15.218 6.56595 15.7816H6.56419C6.69202 16.1806 6.81661 16.4405 6.98963 16.6575C7.07615 16.766 7.17941 16.8644 7.30608 16.942C7.35468 16.9718 7.4085 16.9949 7.46255 17.0166C7.47008 17.0197 7.47784 17.0205 7.4854 17.0235L7.46431 17.0183C7.47998 17.0245 7.49404 17.0337 7.51001 17.0391C7.53604 17.048 7.55408 17.0477 7.58913 17.0547C7.71245 17.0922 7.83554 17.1172 7.94952 17.1172C8.43884 17.1172 8.73888 16.8553 8.73888 16.8553L8.75822 16.8414L10.8714 15.0775L13.4592 17.4398C13.5065 17.5056 13.8768 18 14.7338 18C15.2452 18 15.6495 17.7503 15.9082 17.4883C16.1668 17.2264 16.328 16.9584 16.4004 16.5951L16.4022 16.5934C16.4599 16.3001 18.9373 4.02729 18.9373 4.02729L18.932 4.0481C19.0091 3.70857 19.0319 3.38021 18.9408 3.04559C18.8497 2.71097 18.6039 2.38442 18.3079 2.21306C18.0119 2.04169 17.7312 1.99029 17.4711 2.00146ZM17.1159 3.94577C17.018 4.43067 14.7989 15.4299 14.6617 16.1199L10.9241 12.7082L8.39782 14.8156L9.09752 12.1168C9.09752 12.1168 13.9244 7.29636 14.2152 7.01574C14.4492 6.79107 14.4982 6.71231 14.4982 6.63417C14.4982 6.53026 14.444 6.45552 14.3189 6.45552C14.2064 6.45552 14.0536 6.56189 13.9726 6.61162C12.9431 7.24479 8.55861 9.70989 6.40245 10.92C6.27269 10.8687 4.32457 10.0969 3.2749 9.68332C5.14198 8.90807 8.34247 7.5796 11.3232 6.34278C12.8875 5.69368 14.3549 5.08536 15.4616 4.62741C16.3958 4.24084 16.8831 4.04068 17.1159 3.94577ZM14.6353 16.2465H14.6371L14.6353 16.2517C14.6365 16.2459 14.6345 16.251 14.6353 16.2465Z"
    fill="black"
    />
</svg>