 <svg
    width="20"
    height="20"
    viewBox="0 0 20 20"
    fill="none"
    xmlns="http://www.w3.org/2000/svg"
>
    <rect width="20" height="20" fill="white" />
    <path
    fillRule="evenodd"
    clipRule="evenodd"
    d="M10.5 4C5.80452 4 2 7.67118 2 12.2021C2 15.8252 4.4349 18.901 7.81331 19.985C8.23942 20.0598 8.39437 19.8088 8.39437 19.5898C8.39437 19.3949 8.38607 18.8796 8.3833 18.1961C6.01758 18.6901 5.51953 17.0961 5.51953 17.0961C5.13216 16.1483 4.57601 15.8946 4.57601 15.8946C3.80404 15.3873 4.63411 15.398 4.63411 15.398C5.48633 15.4568 5.93457 16.2417 5.93457 16.2417C6.69271 17.4966 7.92399 17.1335 8.4082 16.9252C8.48568 16.3939 8.70703 16.0335 8.94775 15.8279C7.06071 15.6223 5.07682 14.9174 5.07682 11.7749C5.07682 10.8778 5.40885 10.1462 5.95117 9.57219C5.8654 9.3666 5.5721 8.53091 6.03418 7.40152C6.03418 7.40152 6.74805 7.18258 8.37223 8.24255C9.05013 8.06099 9.77783 7.97022 10.5 7.96755C11.2222 7.97022 11.9499 8.06099 12.6278 8.24255C14.252 7.18258 14.9631 7.40152 14.9631 7.40152C15.4279 8.53091 15.1374 9.3666 15.0488 9.57219C15.5939 10.1462 15.9204 10.8778 15.9204 11.7749C15.9204 14.9254 13.9338 15.617 12.0412 15.8225C12.3455 16.0735 12.6167 16.5755 12.6167 17.3391C12.6167 18.4364 12.6084 19.3202 12.6084 19.5898C12.6084 19.8088 12.7606 20.0651 13.1922 19.985C16.5679 18.8983 19 15.8252 19 12.2021C19 7.67118 15.1955 4 10.5 4Z"
    fill="black"
    />
</svg>