 <svg
    width="20"
    height="20"
    viewBox="0 0 20 20"
    fill="none"
    xmlns="http://www.w3.org/2000/svg"
>
    <rect width="20" height="20" fill="white" />
    <path
    d="M3.93182 2C2.87536 2 2 2.87536 2 3.93182V17.0682C2 18.1246 2.87536 19 3.93182 19H17.0682C18.1246 19 19 18.1246 19 17.0682V3.93182C19 2.87536 18.1246 2 17.0682 2H3.93182ZM3.93182 3.54545H17.0682C17.2885 3.54545 17.4545 3.71147 17.4545 3.93182V17.0682C17.4545 17.2885 17.2885 17.4545 17.0682 17.4545H3.93182C3.71147 17.4545 3.54545 17.2885 3.54545 17.0682V3.93182C3.54545 3.71147 3.71147 3.54545 3.93182 3.54545ZM6.2017 4.87358C5.46822 4.87358 4.87358 5.46822 4.87358 6.2017C4.87358 6.93519 5.46822 7.52983 6.2017 7.52983C6.93519 7.52983 7.52983 6.93519 7.52983 6.2017C7.52983 5.46822 6.93519 4.87358 6.2017 4.87358ZM13.1804 8.39915C12.0726 8.39915 11.3361 9.00586 11.0312 9.58239H10.983V8.56818H8.80966V15.9091H11.0795V12.2869C11.0795 11.3301 11.2697 10.4034 12.456 10.4034C13.6241 10.4034 13.6392 11.484 13.6392 12.3352V15.9091H15.9091V11.8764C15.9091 9.90234 15.4895 8.39915 13.1804 8.39915ZM5.09091 8.56818V15.9091H7.38494V8.56818H5.09091Z"
    fill="black"
    />
</svg>